<?xml version="1.0" encoding="UTF-8" standalone="no"?>
<svg
   fill="#000000"
   width="650"
   height="650"
   viewBox="0 0 26 26"
   version="1.1"
   id="svg1"
   xmlns="http://www.w3.org/2000/svg"
   xmlns:svg="http://www.w3.org/2000/svg"
   xmlns:rdf="http://www.w3.org/1999/02/22-rdf-syntax-ns#"
   xmlns:cc="http://creativecommons.org/ns#"
   xmlns:dc="http://purl.org/dc/elements/1.1/">
  <defs
     id="defs1" />
  <title
     id="title1">cancel orange on</title>
  <path
     d="M 13,26 C 5.82,26 0,20.18 0,13 0,5.82 5.82,0 13,0 20.18,0 26,5.82 26,13 26,20.18 20.18,26 13,26 Z M 13,3 C 7.478,3 3,7.478 3,13 3,18.522 7.478,23 13,23 18.523,23 23,18.522 23,13 23,7.478 18.523,3 13,3 Z m 4.537,13.535 -1.014,1.014 c -0.186,0.186 -0.488,0.186 -0.675,0 l -2.87,-2.87 -2.87,2.87 c -0.187,0.186 -0.488,0.186 -0.675,0 L 8.419,16.535 c -0.186,-0.186 -0.186,-0.488 0,-0.675 L 11.29,12.991 8.419,10.121 C 8.233,9.934 8.233,9.632 8.419,9.445 L 9.433,8.432 c 0.187,-0.187 0.488,-0.187 0.675,0 l 2.87,2.87 2.87,-2.87 c 0.187,-0.187 0.489,-0.187 0.675,0 l 1.014,1.013 c 0.186,0.187 0.186,0.489 0,0.676 l -2.871,2.87 2.871,2.869 c 0.186,0.187 0.186,0.49 0,0.675 z"
     id="path1"
     style="fill:#cc9d3c;fill-opacity:1" />
  <metadata
     id="metadata1">
    <rdf:RDF>
      <cc:Work
         rdf:about="">
        <dc:title>cancel orange on</dc:title>
      </cc:Work>
    </rdf:RDF>
  </metadata>
</svg>
