<?xml version="1.0" encoding="UTF-8" standalone="no"?>
<svg
   fill="#000000"
   width="650"
   height="650"
   viewBox="0 0 26 26"
   version="1.1"
   id="svg1"
   sodipodi:docname="checkmark_yellow.svg"
   inkscape:version="1.3 (0e150ed6c4, 2023-07-21)"
   xmlns:inkscape="http://www.inkscape.org/namespaces/inkscape"
   xmlns:sodipodi="http://sodipodi.sourceforge.net/DTD/sodipodi-0.dtd"
   xmlns="http://www.w3.org/2000/svg"
   xmlns:svg="http://www.w3.org/2000/svg"
   xmlns:rdf="http://www.w3.org/1999/02/22-rdf-syntax-ns#"
   xmlns:cc="http://creativecommons.org/ns#"
   xmlns:dc="http://purl.org/dc/elements/1.1/">
  <sodipodi:namedview
     id="namedview1"
     pagecolor="#ffffff"
     bordercolor="#000000"
     borderopacity="0.25"
     inkscape:showpageshadow="2"
     inkscape:pageopacity="0.0"
     inkscape:pagecheckerboard="0"
     inkscape:deskcolor="#d1d1d1"
     inkscape:zoom="1.8046154"
     inkscape:cx="325"
     inkscape:cy="325"
     inkscape:window-width="2560"
     inkscape:window-height="1369"
     inkscape:window-x="-8"
     inkscape:window-y="-8"
     inkscape:window-maximized="1"
     inkscape:current-layer="svg1" />
  <defs
     id="defs1" />
  <title
     id="title1">checkmark yellow</title>
  <path
     d="M 18.82,10.03 17.818,9.028 c -0.185,-0.185 -0.484,-0.185 -0.668,0 l -6.014,6.013 -2.859,-2.882 c -0.186,-0.185 -0.484,-0.185 -0.67,0 l -1.002,1.003 c -0.185,0.185 -0.185,0.484 0,0.668 l 4.193,4.223 c 0.185,0.184 0.484,0.184 0.668,0 l 7.354,-7.354 c 0.186,-0.185 0.186,-0.484 0,-0.669 z M 13,0 C 5.82,0 0,5.82 0,13 0,20.18 5.82,26 13,26 20.18,26 26,20.18 26,13 26,5.82 20.18,0 13,0 Z m 0,23 C 7.478,23 3,18.522 3,13 3,7.477 7.478,3 13,3 c 5.523,0 10,4.477 10,10 0,5.522 -4.477,10 -10,10 z"
     id="path1"
     style="fill:#ffdd55;fill-opacity:1" />
  <metadata
     id="metadata1">
    <rdf:RDF>
      <cc:Work
         rdf:about="">
        <dc:title>checkmark yellow</dc:title>
      </cc:Work>
    </rdf:RDF>
  </metadata>
</svg>
